<svg id="Layer_1" enable-background="new 0 0 512.015 512.015" height="512" viewBox="0 0 512.015 512.015" width="512" xmlns="http://www.w3.org/2000/svg"><g><g><path d="m501.781 256.229c-6.592-6.591-15.381-10.221-24.749-10.221s-18.158 3.63-24.749 10.221l-185.675 185.674c-1.098 1.098-1.925 2.436-2.415 3.909l-15.4 46.197h-238.793c-5.523 0-10 4.477-10 10s4.477 10 10 10h246.001c1.075 0 2.143-.173 3.162-.513l53.034-17.679c1.473-.491 2.812-1.318 3.909-2.416l185.675-185.674c13.646-13.647 13.646-35.851 0-49.498zm-178.603 199.816-21.214-21.214 129.104-129.104 21.213 21.213zm-51.366 30.152 10.607-31.821 5.402-5.402 21.214 21.214-5.402 5.402zm215.827-194.613-21.214 21.214-21.213-21.213 21.214-21.214c2.813-2.813 6.58-4.363 10.606-4.363 4.025 0 7.793 1.55 10.606 4.363 5.849 5.849 5.849 15.365.001 21.213z"/><path d="m34.647 255.932c4.835-2.668 6.593-8.751 3.925-13.587-12.15-22.02-18.572-47.034-18.572-72.338 0-82.71 67.29-150 150-150s150 67.29 150 150c0 27.715-7.619 54.788-22.033 78.292-1.436 2.34-1.846 5.167-1.134 7.819l.636 2.372c4.397 16.39 8.794 32.78 13.187 49.171.24.901.025 1.69-.638 2.344-.388.383-1.213.974-2.379.646-.042-.012-.085-.024-.127-.035-17.132-4.591-34.261-9.187-51.392-13.783-2.652-.711-5.479-.301-7.819 1.134-23.509 14.418-50.585 22.04-78.301 22.04-25.301 0-50.316-6.423-72.342-18.574-4.836-2.669-10.919-.911-13.586 3.925-2.668 4.836-.911 10.919 3.925 13.586 24.977 13.779 53.333 21.062 82.003 21.062 29.95 0 59.247-7.857 85.017-22.762 15.755 4.227 31.507 8.453 47.264 12.675 7.705 2.148 16.045-.021 21.775-5.669 5.812-5.727 8.027-13.854 5.922-21.753-4.244-15.837-8.489-31.661-12.733-47.484 14.901-25.764 22.755-55.058 22.755-85.006 0-93.739-76.262-170-170-170s-170 76.261-170 170c0 28.674 7.283 57.029 21.06 82 2.669 4.836 8.75 6.593 13.587 3.925z"/><path d="m56.863 273.144h-.007c-5.523 0-9.996 4.477-9.996 10s4.48 10 10.003 10 10-4.477 10-10-4.477-10-10-10z"/><path d="m147.967 230.906c6.074 6.074 14.054 9.111 22.033 9.111s15.959-3.037 22.034-9.111l43.391-43.391c19.986-19.987 19.986-52.507 0-72.495-17.77-17.77-45.449-19.741-65.417-5.913-8.508-5.916-18.602-9.102-29.184-9.102-13.692 0-26.565 5.333-36.247 15.014-19.987 19.987-19.987 52.508 0 72.495zm-29.248-101.743c5.904-5.904 13.754-9.156 22.104-9.156 8.351 0 16.201 3.252 22.105 9.156 1.875 1.875 4.419 2.929 7.071 2.929s5.196-1.054 7.071-2.929c12.188-12.188 32.021-12.189 44.21 0 12.188 12.189 12.188 32.022 0 44.21l-43.39 43.39c-4.351 4.351-11.431 4.352-15.782 0l-43.39-43.39c-12.188-12.188-12.188-32.021.001-44.21z"/></g></g></svg>